<mxfile host="65bd71144e">
    <diagram id="h4qy9qMXhf4A3E8qXzfu" name="entité-relations">
        <mxGraphModel dx="543" dy="634" grid="1" gridSize="10" guides="1" tooltips="1" connect="1" arrows="1" fold="1" page="1" pageScale="1" pageWidth="850" pageHeight="1100" math="0" shadow="0">
            <root>
                <mxCell id="0"/>
                <mxCell id="1" parent="0"/>
                <mxCell id="11" value="GameGrid" style="swimlane;fontStyle=0;childLayout=stackLayout;horizontal=1;startSize=26;fillColor=none;horizontalStack=0;resizeParent=1;resizeParentMax=0;resizeLast=0;collapsible=1;marginBottom=0;" parent="1" vertex="1">
                    <mxGeometry x="510" y="314" width="140" height="182" as="geometry"/>
                </mxCell>
                <mxCell id="43" value="grid_row: int" style="text;strokeColor=none;fillColor=none;align=left;verticalAlign=top;spacingLeft=4;spacingRight=4;overflow=hidden;rotatable=0;points=[[0,0.5],[1,0.5]];portConstraint=eastwest;" parent="11" vertex="1">
                    <mxGeometry y="26" width="140" height="26" as="geometry"/>
                </mxCell>
                <mxCell id="44" value="grid_col: int" style="text;strokeColor=none;fillColor=none;align=left;verticalAlign=top;spacingLeft=4;spacingRight=4;overflow=hidden;rotatable=0;points=[[0,0.5],[1,0.5]];portConstraint=eastwest;" parent="11" vertex="1">
                    <mxGeometry y="52" width="140" height="26" as="geometry"/>
                </mxCell>
                <mxCell id="mXp4aYVHo92_j6GYXBpD-50" value="word_id: int" style="text;strokeColor=none;fillColor=none;align=left;verticalAlign=top;spacingLeft=4;spacingRight=4;overflow=hidden;rotatable=0;points=[[0,0.5],[1,0.5]];portConstraint=eastwest;" parent="11" vertex="1">
                    <mxGeometry y="78" width="140" height="26" as="geometry"/>
                </mxCell>
                <mxCell id="mXp4aYVHo92_j6GYXBpD-67" value="card_type: int" style="text;strokeColor=none;fillColor=none;align=left;verticalAlign=top;spacingLeft=4;spacingRight=4;overflow=hidden;rotatable=0;points=[[0,0.5],[1,0.5]];portConstraint=eastwest;" parent="11" vertex="1">
                    <mxGeometry y="104" width="140" height="26" as="geometry"/>
                </mxCell>
                <mxCell id="50" value="card_type: text" style="text;strokeColor=none;fillColor=none;align=left;verticalAlign=top;spacingLeft=4;spacingRight=4;overflow=hidden;rotatable=0;points=[[0,0.5],[1,0.5]];portConstraint=eastwest;" parent="11" vertex="1">
                    <mxGeometry y="130" width="140" height="26" as="geometry"/>
                </mxCell>
                <mxCell id="mXp4aYVHo92_j6GYXBpD-68" value="is_discovered: boolean" style="text;strokeColor=none;fillColor=none;align=left;verticalAlign=top;spacingLeft=4;spacingRight=4;overflow=hidden;rotatable=0;points=[[0,0.5],[1,0.5]];portConstraint=eastwest;" parent="11" vertex="1">
                    <mxGeometry y="156" width="140" height="26" as="geometry"/>
                </mxCell>
                <mxCell id="12" value="Player" style="swimlane;fontStyle=0;childLayout=stackLayout;horizontal=1;startSize=26;fillColor=none;horizontalStack=0;resizeParent=1;resizeParentMax=0;resizeLast=0;collapsible=1;marginBottom=0;" parent="1" vertex="1">
                    <mxGeometry x="180" y="123" width="140" height="104" as="geometry"/>
                </mxCell>
                <mxCell id="48" value="cookie: text" style="text;strokeColor=none;fillColor=none;align=left;verticalAlign=top;spacingLeft=4;spacingRight=4;overflow=hidden;rotatable=0;points=[[0,0.5],[1,0.5]];portConstraint=eastwest;" parent="12" vertex="1">
                    <mxGeometry y="26" width="140" height="26" as="geometry"/>
                </mxCell>
                <mxCell id="21" value="hote: boolean" style="text;strokeColor=none;fillColor=none;align=left;verticalAlign=top;spacingLeft=4;spacingRight=4;overflow=hidden;rotatable=0;points=[[0,0.5],[1,0.5]];portConstraint=eastwest;" parent="12" vertex="1">
                    <mxGeometry y="52" width="140" height="26" as="geometry"/>
                </mxCell>
                <mxCell id="26" value="role: PlayerRole" style="text;strokeColor=none;fillColor=none;align=left;verticalAlign=top;spacingLeft=4;spacingRight=4;overflow=hidden;rotatable=0;points=[[0,0.5],[1,0.5]];portConstraint=eastwest;" parent="12" vertex="1">
                    <mxGeometry y="78" width="140" height="26" as="geometry"/>
                </mxCell>
                <mxCell id="13" value="Game" style="swimlane;fontStyle=0;childLayout=stackLayout;horizontal=1;startSize=26;fillColor=none;horizontalStack=0;resizeParent=1;resizeParentMax=0;resizeLast=0;collapsible=1;marginBottom=0;" parent="1" vertex="1">
                    <mxGeometry x="180" y="366" width="140" height="52" as="geometry"/>
                </mxCell>
                <mxCell id="18" value="game_code: text" style="text;strokeColor=none;fillColor=none;align=left;verticalAlign=top;spacingLeft=4;spacingRight=4;overflow=hidden;rotatable=0;points=[[0,0.5],[1,0.5]];portConstraint=eastwest;" parent="13" vertex="1">
                    <mxGeometry y="26" width="140" height="26" as="geometry"/>
                </mxCell>
                <mxCell id="27" value="PlayerRole&#10;&lt;&lt;ENUM&gt;&gt;" style="swimlane;fontStyle=0;childLayout=stackLayout;horizontal=1;startSize=26;fillColor=none;horizontalStack=0;resizeParent=1;resizeParentMax=0;resizeLast=0;collapsible=1;marginBottom=0;" parent="1" vertex="1">
                    <mxGeometry x="20" y="123" width="140" height="104" as="geometry"/>
                </mxCell>
                <mxCell id="28" value="MOTS" style="text;strokeColor=none;fillColor=none;align=left;verticalAlign=top;spacingLeft=4;spacingRight=4;overflow=hidden;rotatable=0;points=[[0,0.5],[1,0.5]];portConstraint=eastwest;" parent="27" vertex="1">
                    <mxGeometry y="26" width="140" height="26" as="geometry"/>
                </mxCell>
                <mxCell id="29" value="INTUITIONS" style="text;strokeColor=none;fillColor=none;align=left;verticalAlign=top;spacingLeft=4;spacingRight=4;overflow=hidden;rotatable=0;points=[[0,0.5],[1,0.5]];portConstraint=eastwest;" parent="27" vertex="1">
                    <mxGeometry y="52" width="140" height="26" as="geometry"/>
                </mxCell>
                <mxCell id="30" value="INDETERMINE" style="text;strokeColor=none;fillColor=none;align=left;verticalAlign=top;spacingLeft=4;spacingRight=4;overflow=hidden;rotatable=0;points=[[0,0.5],[1,0.5]];portConstraint=eastwest;" parent="27" vertex="1">
                    <mxGeometry y="78" width="140" height="26" as="geometry"/>
                </mxCell>
                <mxCell id="37" value="1" style="edgeLabel;html=1;align=center;verticalAlign=middle;resizable=0;points=[];" parent="1" vertex="1" connectable="0">
                    <mxGeometry x="270" y="243.00000000000006" as="geometry">
                        <mxPoint x="-6" y="-2" as="offset"/>
                    </mxGeometry>
                </mxCell>
                <mxCell id="42" value="Word" style="swimlane;fontStyle=0;childLayout=stackLayout;horizontal=1;startSize=26;fillColor=none;horizontalStack=0;resizeParent=1;resizeParentMax=0;resizeLast=0;collapsible=1;marginBottom=0;" parent="1" vertex="1">
                    <mxGeometry x="510" y="93" width="140" height="78" as="geometry"/>
                </mxCell>
                <mxCell id="mXp4aYVHo92_j6GYXBpD-48" value="id: int" style="text;strokeColor=none;fillColor=none;align=left;verticalAlign=top;spacingLeft=4;spacingRight=4;overflow=hidden;rotatable=0;points=[[0,0.5],[1,0.5]];portConstraint=eastwest;" parent="42" vertex="1">
                    <mxGeometry y="26" width="140" height="26" as="geometry"/>
                </mxCell>
                <mxCell id="mXp4aYVHo92_j6GYXBpD-49" value="mot: text" style="text;strokeColor=none;fillColor=none;align=left;verticalAlign=top;spacingLeft=4;spacingRight=4;overflow=hidden;rotatable=0;points=[[0,0.5],[1,0.5]];portConstraint=eastwest;" parent="42" vertex="1">
                    <mxGeometry y="52" width="140" height="26" as="geometry"/>
                </mxCell>
                <mxCell id="23" value="pour le choix de qui est&lt;br&gt;quel rôle, il faut qu'un&lt;br&gt;joueur fasse le choix.&lt;br&gt;On partira du principe&lt;br&gt;que c'est celui qui a&lt;br&gt;créé la session." style="text;html=1;strokeColor=none;fillColor=none;align=left;verticalAlign=middle;spacingLeft=4;spacingRight=4;overflow=hidden;rotatable=0;points=[[0,0.5],[1,0.5]];portConstraint=eastwest;" parent="1" vertex="1">
                    <mxGeometry x="10" y="10" width="160" height="110" as="geometry"/>
                </mxCell>
                <mxCell id="mXp4aYVHo92_j6GYXBpD-55" value="Define" style="ellipse;whiteSpace=wrap;html=1;fontStyle=0" parent="1" vertex="1">
                    <mxGeometry x="380" y="373" width="81" height="38" as="geometry"/>
                </mxCell>
                <mxCell id="mXp4aYVHo92_j6GYXBpD-56" value="1, 2" style="edgeLabel;html=1;align=center;verticalAlign=middle;resizable=0;points=[];" parent="1" vertex="1" connectable="0">
                    <mxGeometry x="270" y="333.0033333333334" as="geometry"/>
                </mxCell>
                <mxCell id="mXp4aYVHo92_j6GYXBpD-57" value="Play" style="ellipse;whiteSpace=wrap;html=1;fontStyle=0" parent="1" vertex="1">
                    <mxGeometry x="209.5" y="263" width="81" height="38" as="geometry"/>
                </mxCell>
                <mxCell id="mXp4aYVHo92_j6GYXBpD-58" style="edgeStyle=none;html=1;endArrow=none;endFill=0;strokeWidth=1;" parent="1" source="mXp4aYVHo92_j6GYXBpD-57" target="12" edge="1">
                    <mxGeometry relative="1" as="geometry">
                        <mxPoint x="470" y="263.0000000000001" as="sourcePoint"/>
                        <mxPoint x="470" y="177" as="targetPoint"/>
                    </mxGeometry>
                </mxCell>
                <mxCell id="mXp4aYVHo92_j6GYXBpD-60" style="edgeStyle=none;html=1;endArrow=none;endFill=0;strokeWidth=1;" parent="1" source="13" target="mXp4aYVHo92_j6GYXBpD-57" edge="1">
                    <mxGeometry relative="1" as="geometry">
                        <mxPoint x="260" y="273" as="sourcePoint"/>
                        <mxPoint x="260" y="207" as="targetPoint"/>
                    </mxGeometry>
                </mxCell>
                <mxCell id="mXp4aYVHo92_j6GYXBpD-61" style="edgeStyle=none;html=1;endArrow=none;endFill=0;strokeWidth=1;" parent="1" source="mXp4aYVHo92_j6GYXBpD-62" target="42" edge="1">
                    <mxGeometry relative="1" as="geometry">
                        <mxPoint x="579.5799999999999" y="253" as="sourcePoint"/>
                        <mxPoint x="579.5799999999999" y="201" as="targetPoint"/>
                    </mxGeometry>
                </mxCell>
                <mxCell id="mXp4aYVHo92_j6GYXBpD-82" value="0,n" style="edgeLabel;html=1;align=center;verticalAlign=middle;resizable=0;points=[];" parent="mXp4aYVHo92_j6GYXBpD-61" vertex="1" connectable="0">
                    <mxGeometry x="0.4872" y="-1" relative="1" as="geometry">
                        <mxPoint x="9" y="3" as="offset"/>
                    </mxGeometry>
                </mxCell>
                <mxCell id="mXp4aYVHo92_j6GYXBpD-62" value="Compose" style="ellipse;whiteSpace=wrap;html=1;fontStyle=0" parent="1" vertex="1">
                    <mxGeometry x="539.5" y="223" width="81" height="38" as="geometry"/>
                </mxCell>
                <mxCell id="mXp4aYVHo92_j6GYXBpD-64" style="edgeStyle=none;html=1;endArrow=none;endFill=0;strokeWidth=1;entryX=0.5;entryY=1;entryDx=0;entryDy=0;" parent="1" source="11" target="mXp4aYVHo92_j6GYXBpD-62" edge="1">
                    <mxGeometry relative="1" as="geometry">
                        <mxPoint x="590" y="263" as="sourcePoint"/>
                        <mxPoint x="590" y="210.9999999999999" as="targetPoint"/>
                    </mxGeometry>
                </mxCell>
                <mxCell id="mXp4aYVHo92_j6GYXBpD-83" value="1" style="edgeLabel;html=1;align=center;verticalAlign=middle;resizable=0;points=[];" parent="mXp4aYVHo92_j6GYXBpD-64" vertex="1" connectable="0">
                    <mxGeometry x="-0.5723" relative="1" as="geometry">
                        <mxPoint x="10" y="-1" as="offset"/>
                    </mxGeometry>
                </mxCell>
                <mxCell id="mXp4aYVHo92_j6GYXBpD-65" style="edgeStyle=none;html=1;endArrow=none;endFill=0;strokeWidth=1;" parent="1" source="mXp4aYVHo92_j6GYXBpD-55" target="13" edge="1">
                    <mxGeometry relative="1" as="geometry">
                        <mxPoint x="590" y="360" as="sourcePoint"/>
                        <mxPoint x="590" y="300.9999999999999" as="targetPoint"/>
                    </mxGeometry>
                </mxCell>
                <mxCell id="mXp4aYVHo92_j6GYXBpD-86" value="25" style="edgeLabel;html=1;align=center;verticalAlign=middle;resizable=0;points=[];" parent="mXp4aYVHo92_j6GYXBpD-65" vertex="1" connectable="0">
                    <mxGeometry x="0.4402" y="-3" relative="1" as="geometry">
                        <mxPoint x="-7" y="-10" as="offset"/>
                    </mxGeometry>
                </mxCell>
                <mxCell id="mXp4aYVHo92_j6GYXBpD-66" style="edgeStyle=none;html=1;endArrow=none;endFill=0;strokeWidth=1;" parent="1" source="mXp4aYVHo92_j6GYXBpD-55" target="11" edge="1">
                    <mxGeometry relative="1" as="geometry">
                        <mxPoint x="390.0000000000009" y="402" as="sourcePoint"/>
                        <mxPoint x="330" y="402" as="targetPoint"/>
                    </mxGeometry>
                </mxCell>
                <mxCell id="mXp4aYVHo92_j6GYXBpD-85" value="1" style="edgeLabel;html=1;align=center;verticalAlign=middle;resizable=0;points=[];" parent="mXp4aYVHo92_j6GYXBpD-66" vertex="1" connectable="0">
                    <mxGeometry x="0.3605" relative="1" as="geometry">
                        <mxPoint x="-4" y="-13" as="offset"/>
                    </mxGeometry>
                </mxCell>
                <mxCell id="mXp4aYVHo92_j6GYXBpD-69" value="Guess" style="swimlane;fontStyle=0;childLayout=stackLayout;horizontal=1;startSize=26;fillColor=none;horizontalStack=0;resizeParent=1;resizeParentMax=0;resizeLast=0;collapsible=1;marginBottom=0;" parent="1" vertex="1">
                    <mxGeometry x="180" y="560" width="140" height="156" as="geometry"/>
                </mxCell>
                <mxCell id="mXp4aYVHo92_j6GYXBpD-73" value="game_round: int" style="text;strokeColor=none;fillColor=none;align=left;verticalAlign=top;spacingLeft=4;spacingRight=4;overflow=hidden;rotatable=0;points=[[0,0.5],[1,0.5]];portConstraint=eastwest;" parent="mXp4aYVHo92_j6GYXBpD-69" vertex="1">
                    <mxGeometry y="26" width="140" height="26" as="geometry"/>
                </mxCell>
                <mxCell id="mXp4aYVHo92_j6GYXBpD-70" value="hint: text" style="text;strokeColor=none;fillColor=none;align=left;verticalAlign=top;spacingLeft=4;spacingRight=4;overflow=hidden;rotatable=0;points=[[0,0.5],[1,0.5]];portConstraint=eastwest;" parent="mXp4aYVHo92_j6GYXBpD-69" vertex="1">
                    <mxGeometry y="52" width="140" height="26" as="geometry"/>
                </mxCell>
                <mxCell id="mXp4aYVHo92_j6GYXBpD-71" value="associated_cards: int" style="text;strokeColor=none;fillColor=none;align=left;verticalAlign=top;spacingLeft=4;spacingRight=4;overflow=hidden;rotatable=0;points=[[0,0.5],[1,0.5]];portConstraint=eastwest;" parent="mXp4aYVHo92_j6GYXBpD-69" vertex="1">
                    <mxGeometry y="78" width="140" height="26" as="geometry"/>
                </mxCell>
                <mxCell id="mXp4aYVHo92_j6GYXBpD-72" value="found_cards: int" style="text;strokeColor=none;fillColor=none;align=left;verticalAlign=top;spacingLeft=4;spacingRight=4;overflow=hidden;rotatable=0;points=[[0,0.5],[1,0.5]];portConstraint=eastwest;" parent="mXp4aYVHo92_j6GYXBpD-69" vertex="1">
                    <mxGeometry y="104" width="140" height="26" as="geometry"/>
                </mxCell>
                <mxCell id="mXp4aYVHo92_j6GYXBpD-74" value="has_failed: boolean" style="text;strokeColor=none;fillColor=none;align=left;verticalAlign=top;spacingLeft=4;spacingRight=4;overflow=hidden;rotatable=0;points=[[0,0.5],[1,0.5]];portConstraint=eastwest;" parent="mXp4aYVHo92_j6GYXBpD-69" vertex="1">
                    <mxGeometry y="130" width="140" height="26" as="geometry"/>
                </mxCell>
                <mxCell id="mXp4aYVHo92_j6GYXBpD-78" value="Play" style="ellipse;whiteSpace=wrap;html=1;fontStyle=0" parent="1" vertex="1">
                    <mxGeometry x="209.5" y="470" width="81" height="38" as="geometry"/>
                </mxCell>
                <mxCell id="mXp4aYVHo92_j6GYXBpD-79" style="edgeStyle=none;html=1;endArrow=none;endFill=0;strokeWidth=1;" parent="1" source="mXp4aYVHo92_j6GYXBpD-78" target="13" edge="1">
                    <mxGeometry relative="1" as="geometry">
                        <mxPoint x="260" y="482.9999999999999" as="sourcePoint"/>
                        <mxPoint x="260" y="446.9999999999999" as="targetPoint"/>
                    </mxGeometry>
                </mxCell>
                <mxCell id="mXp4aYVHo92_j6GYXBpD-88" value="0,25" style="edgeLabel;html=1;align=center;verticalAlign=middle;resizable=0;points=[];" parent="mXp4aYVHo92_j6GYXBpD-79" vertex="1" connectable="0">
                    <mxGeometry x="0.5962" relative="1" as="geometry">
                        <mxPoint x="20" y="3" as="offset"/>
                    </mxGeometry>
                </mxCell>
                <mxCell id="mXp4aYVHo92_j6GYXBpD-80" style="edgeStyle=none;html=1;endArrow=none;endFill=0;strokeWidth=1;" parent="1" source="mXp4aYVHo92_j6GYXBpD-78" target="mXp4aYVHo92_j6GYXBpD-69" edge="1">
                    <mxGeometry relative="1" as="geometry">
                        <mxPoint x="270" y="282.9999999999999" as="sourcePoint"/>
                        <mxPoint x="270" y="246.9999999999999" as="targetPoint"/>
                    </mxGeometry>
                </mxCell>
                <mxCell id="mXp4aYVHo92_j6GYXBpD-87" value="1" style="edgeLabel;html=1;align=center;verticalAlign=middle;resizable=0;points=[];" parent="mXp4aYVHo92_j6GYXBpD-80" vertex="1" connectable="0">
                    <mxGeometry x="0.3654" y="1" relative="1" as="geometry">
                        <mxPoint x="9" as="offset"/>
                    </mxGeometry>
                </mxCell>
                <mxCell id="mXp4aYVHo92_j6GYXBpD-84" value="Le score est calculé à&lt;br&gt;partir de la table guess" style="text;html=1;align=center;verticalAlign=middle;resizable=0;points=[];autosize=1;strokeColor=none;fillColor=none;" parent="1" vertex="1">
                    <mxGeometry x="20" y="366" width="140" height="40" as="geometry"/>
                </mxCell>
                <mxCell id="mXp4aYVHo92_j6GYXBpD-89" value="Clé primaire composée&lt;br&gt;de game_code et round" style="text;html=1;align=center;verticalAlign=middle;resizable=0;points=[];autosize=1;strokeColor=none;fillColor=none;" parent="1" vertex="1">
                    <mxGeometry x="20" y="570" width="150" height="40" as="geometry"/>
                </mxCell>
                <mxCell id="49" value="&lt;div style=&quot;color: rgb(204, 204, 204); background-color: rgb(31, 31, 31); font-family: Consolas, &amp;quot;Courier New&amp;quot;, monospace; font-weight: normal; font-size: 14px; line-height: 19px;&quot;&gt;&lt;br&gt;&lt;/div&gt;" style="text;whiteSpace=wrap;html=1;" parent="1" vertex="1">
                    <mxGeometry x="700" y="560" width="100" height="40" as="geometry"/>
                </mxCell>
            </root>
        </mxGraphModel>
    </diagram>
    <diagram id="oIaLXJdX5YXbCFwSPHZn" name="Page-2">
        <mxGraphModel dx="724" dy="779" grid="1" gridSize="10" guides="1" tooltips="1" connect="1" arrows="1" fold="1" page="1" pageScale="1" pageWidth="850" pageHeight="1100" math="0" shadow="0">
            <root>
                <mxCell id="0"/>
                <mxCell id="1" parent="0"/>
                <mxCell id="gBbnrylQiP7jOOHIfmIO-2" value="Joueur 1" style="shape=umlLifeline;perimeter=lifelinePerimeter;whiteSpace=wrap;html=1;container=1;collapsible=0;recursiveResize=0;outlineConnect=0;lifelineDashed=0;" vertex="1" parent="1">
                    <mxGeometry x="40" y="40" width="100" height="300" as="geometry"/>
                </mxCell>
                <mxCell id="gBbnrylQiP7jOOHIfmIO-11" value="" style="html=1;verticalAlign=bottom;labelBackgroundColor=none;endArrow=block;endFill=1;strokeWidth=1;" edge="1" parent="gBbnrylQiP7jOOHIfmIO-2">
                    <mxGeometry width="160" relative="1" as="geometry">
                        <mxPoint x="50" y="210" as="sourcePoint"/>
                        <mxPoint x="489.5" y="210" as="targetPoint"/>
                    </mxGeometry>
                </mxCell>
                <mxCell id="gBbnrylQiP7jOOHIfmIO-12" value="POST /api/ws-connect/:game_code" style="edgeLabel;html=1;align=center;verticalAlign=middle;resizable=0;points=[];" vertex="1" connectable="0" parent="gBbnrylQiP7jOOHIfmIO-11">
                    <mxGeometry x="-0.4448" y="3" relative="1" as="geometry">
                        <mxPoint x="-22" y="-7" as="offset"/>
                    </mxGeometry>
                </mxCell>
                <mxCell id="gBbnrylQiP7jOOHIfmIO-3" value="Joueur 2" style="shape=umlLifeline;perimeter=lifelinePerimeter;whiteSpace=wrap;html=1;container=1;collapsible=0;recursiveResize=0;outlineConnect=0;lifelineDashed=0;" vertex="1" parent="1">
                    <mxGeometry x="240" y="40" width="100" height="300" as="geometry"/>
                </mxCell>
                <mxCell id="gBbnrylQiP7jOOHIfmIO-4" value="Serveur" style="shape=umlLifeline;perimeter=lifelinePerimeter;whiteSpace=wrap;html=1;container=1;collapsible=0;recursiveResize=0;outlineConnect=0;lifelineDashed=0;" vertex="1" parent="1">
                    <mxGeometry x="480" y="40" width="100" height="300" as="geometry"/>
                </mxCell>
                <mxCell id="gBbnrylQiP7jOOHIfmIO-9" value="" style="html=1;verticalAlign=bottom;labelBackgroundColor=none;endArrow=block;endFill=1;strokeWidth=1;" edge="1" parent="gBbnrylQiP7jOOHIfmIO-4">
                    <mxGeometry width="160" relative="1" as="geometry">
                        <mxPoint x="-190.5" y="270" as="sourcePoint"/>
                        <mxPoint x="49.5" y="270" as="targetPoint"/>
                    </mxGeometry>
                </mxCell>
                <mxCell id="gBbnrylQiP7jOOHIfmIO-10" value="POST /api/join-game/:game_code" style="edgeLabel;html=1;align=center;verticalAlign=middle;resizable=0;points=[];" vertex="1" connectable="0" parent="gBbnrylQiP7jOOHIfmIO-9">
                    <mxGeometry x="-0.4448" y="3" relative="1" as="geometry">
                        <mxPoint x="44" y="-7" as="offset"/>
                    </mxGeometry>
                </mxCell>
                <mxCell id="gBbnrylQiP7jOOHIfmIO-5" value="" style="html=1;verticalAlign=bottom;labelBackgroundColor=none;endArrow=block;endFill=1;strokeWidth=1;" edge="1" parent="1" target="gBbnrylQiP7jOOHIfmIO-4">
                    <mxGeometry width="160" relative="1" as="geometry">
                        <mxPoint x="90" y="120" as="sourcePoint"/>
                        <mxPoint x="250" y="120" as="targetPoint"/>
                    </mxGeometry>
                </mxCell>
                <mxCell id="gBbnrylQiP7jOOHIfmIO-6" value="POST /api/new-game" style="edgeLabel;html=1;align=center;verticalAlign=middle;resizable=0;points=[];" vertex="1" connectable="0" parent="gBbnrylQiP7jOOHIfmIO-5">
                    <mxGeometry x="-0.4448" y="3" relative="1" as="geometry">
                        <mxPoint x="-22" y="-7" as="offset"/>
                    </mxGeometry>
                </mxCell>
                <mxCell id="gBbnrylQiP7jOOHIfmIO-7" value="" style="html=1;verticalAlign=bottom;labelBackgroundColor=none;endArrow=block;endFill=1;strokeWidth=1;" edge="1" parent="1" source="gBbnrylQiP7jOOHIfmIO-4" target="gBbnrylQiP7jOOHIfmIO-2">
                    <mxGeometry width="160" relative="1" as="geometry">
                        <mxPoint x="320" y="220" as="sourcePoint"/>
                        <mxPoint x="759.5" y="220" as="targetPoint"/>
                    </mxGeometry>
                </mxCell>
                <mxCell id="gBbnrylQiP7jOOHIfmIO-8" value="renvoie le code" style="edgeLabel;html=1;align=center;verticalAlign=middle;resizable=0;points=[];" vertex="1" connectable="0" parent="gBbnrylQiP7jOOHIfmIO-7">
                    <mxGeometry x="-0.4448" y="3" relative="1" as="geometry">
                        <mxPoint y="-13" as="offset"/>
                    </mxGeometry>
                </mxCell>
            </root>
        </mxGraphModel>
    </diagram>
</mxfile>